#N canvas 539 381 566 379 10;
#N canvas 0 22 450 278 (subpatch) 0;
#X array \$1 24747 float 2;
#X coords 0 1 24747 -1 200 140 1 0 0;
#X restore 319 143 graph;
#X obj 24 164 soundfiler;
#X floatatom 24 186 10 0 0 0 - - -, f 10;
#X obj 24 205 t f f;
#X obj 51 229 / 44.1;
#X floatatom 51 251 10 0 0 0 - - -, f 10;
#X floatatom 24 302 5 0 0 0 - - -, f 5;
#X obj 51 270 s dur-ms;
#X obj 26 20 loadbang;
#X obj 27 53 t b b;
#X obj 27 75 symbol \$1;
#X symbolatom 28 99 10 0 0 0 - - -, f 10;
#X obj 97 18 bng 15 250 50 0 empty empty empty 17 7 0 10 -262144 -1
-1;
#X msg 24 142 read -resize Samples/\$1.wav \$1;
#X obj 24 321 s samp;
#X connect 1 0 2 0;
#X connect 2 0 3 0;
#X connect 3 0 6 0;
#X connect 3 1 4 0;
#X connect 4 0 5 0;
#X connect 5 0 7 0;
#X connect 6 0 14 0;
#X connect 8 0 9 0;
#X connect 9 0 10 0;
#X connect 10 0 11 0;
#X connect 11 0 13 0;
#X connect 12 0 9 0;
#X connect 13 0 1 0;
