#N canvas 416 333 744 507 10;
#N canvas 402 23 450 300 midi 0;
#X obj 63 40 notein;
#X floatatom 63 64 5 0 0 0 - - -, f 5;
#X floatatom 102 64 5 0 0 0 - - -, f 5;
#X obj 63 83 pack;
#X obj 63 105 poly 8 0;
#X obj 34 122 - 1;
#X floatatom 34 144 5 0 0 0 - - -, f 5;
#X floatatom 85 144 5 0 0 0 - - -, f 5;
#X floatatom 126 144 5 0 0 0 - - -, f 5;
#X obj 57 178 pack f f f;
#X msg 57 200 \; voice-data-\$1 \$2 \$3;
#X connect 0 0 1 0;
#X connect 0 1 2 0;
#X connect 1 0 3 0;
#X connect 2 0 3 1;
#X connect 3 0 4 0;
#X connect 4 0 5 0;
#X connect 4 1 7 0;
#X connect 4 2 8 0;
#X connect 5 0 6 0;
#X connect 6 0 9 0;
#X connect 7 0 9 1;
#X connect 8 0 9 2;
#X connect 9 0 10 0;
#X restore 23 22 pd midi;
#X obj 23 49 Loader snare;
#X obj 23 72 Loader kick;
#X obj 25 125 catch~ soundout;
#X obj 25 147 /~ 8;
#X obj 25 175 dac~;
#X obj 155 85 s array;
#X msg 155 39 symbol kick;
#X msg 243 39 symbol snare;
#X obj 355 68 s durate;
#X obj 355 41 tgl 15 0 empty empty empty 17 7 0 10 -262144 -1 -1 0
1;
#X obj 155 11 loadbang;
#X obj 24 98 clone Voice 8;
#X connect 3 0 4 0;
#X connect 4 0 5 0;
#X connect 4 0 5 1;
#X connect 7 0 6 0;
#X connect 8 0 6 0;
#X connect 10 0 9 0;
#X connect 11 0 7 0;
