#N canvas 914 65 477 568 10;
#X obj 28 44 unpack;
#X obj 28 22 r voice-data-\$1;
#X obj 28 109 spigot;
#X obj 61 69 t f f, f 24;
#X floatatom 28 131 5 0 0 0 - - -, f 5;
#X obj 28 150 mtof;
#X obj 28 172 / 440;
#X msg 28 216 1;
#X obj 28 238 /;
#X floatatom 28 260 5 0 0 0 - - -, f 5;
#X obj 28 277 t b b b f, f 21;
#X msg 28 301 1;
#X obj 30 365 pack;
#X obj 62 394 line~;
#X obj 73 423 *~;
#X obj 73 445 +~ 1;
#X obj 28 194 t b f;
#X obj 189 508 *~;
#X obj 189 530 throw~ soundout;
#X obj 110 388 - 3;
#X obj 149 412 r array;
#X msg 149 434 set \$1;
#X obj 204 125 sel 0;
#X msg 204 147 0;
#X floatatom 254 148 5 0 0 0 - - -, f 5;
#X obj 204 169 spigot 1, f 14;
#X obj 291 118 r durate;
#X obj 291 142 tgl 15 0 empty empty empty 17 7 0 10 -262144 -1 -1 0
1;
#X obj 204 219 pack f 30;
#X obj 204 241 line~;
#X obj 68 318 f;
#X obj 67 341 * 1;
#X floatatom 152 327 5 0 0 0 - - -, f 5;
#X msg 110 301 0;
#X obj 110 366 r samp;
#X obj 87 252 r dur-ms;
#X obj 73 467 tabread4~ kick;
#X obj 75 108 r ref-pitch;
#X floatatom 75 130 5 0 0 0 - - -, f 5;
#X obj 75 149 mtof;
#X connect 0 0 2 0;
#X connect 0 1 3 0;
#X connect 1 0 0 0;
#X connect 2 0 4 0;
#X connect 3 0 2 1;
#X connect 3 1 22 0;
#X connect 4 0 5 0;
#X connect 5 0 6 0;
#X connect 6 0 16 0;
#X connect 7 0 8 0;
#X connect 8 0 9 0;
#X connect 9 0 10 0;
#X connect 10 0 11 0;
#X connect 10 1 30 0;
#X connect 10 2 33 0;
#X connect 10 3 32 0;
#X connect 11 0 12 0;
#X connect 12 0 13 0;
#X connect 13 0 14 0;
#X connect 14 0 15 0;
#X connect 15 0 36 0;
#X connect 16 0 7 0;
#X connect 16 1 8 1;
#X connect 17 0 18 0;
#X connect 19 0 14 1;
#X connect 20 0 21 0;
#X connect 21 0 36 0;
#X connect 22 0 23 0;
#X connect 22 1 24 0;
#X connect 23 0 25 0;
#X connect 24 0 28 0;
#X connect 25 0 28 0;
#X connect 26 0 27 0;
#X connect 27 0 25 1;
#X connect 28 0 29 0;
#X connect 29 0 17 1;
#X connect 30 0 31 0;
#X connect 31 0 12 1;
#X connect 32 0 31 1;
#X connect 33 0 13 0;
#X connect 34 0 19 0;
#X connect 35 0 30 1;
#X connect 36 0 17 0;
#X connect 37 0 38 0;
#X connect 38 0 39 0;
#X connect 39 0 6 1;
