#N canvas 634 321 577 409 10;
#X msg 148 12 0;
#X obj 87 60 tgl 15 0 empty empty empty 17 7 0 10 -262144 -1 -1 0 1
;
#X obj 107 60 tgl 15 0 empty empty empty 17 7 0 10 -262144 -1 -1 0
1;
#X obj 127 60 tgl 15 0 empty empty empty 17 7 0 10 -262144 -1 -1 0
1;
#X obj 147 60 tgl 15 0 empty empty empty 17 7 0 10 -262144 -1 -1 0
1;
#X obj 167 60 tgl 15 0 empty empty empty 17 7 0 10 -262144 -1 -1 0
1;
#X obj 187 60 tgl 15 0 empty empty empty 17 7 0 10 -262144 -1 -1 0
1;
#X obj 207 60 tgl 15 0 empty empty empty 17 7 0 10 -262144 -1 -1 0
1;
#X obj 227 60 tgl 15 0 empty empty empty 17 7 0 10 -262144 -1 -1 0
1;
#X obj 240 41 bng 15 250 50 0 empty empty empty 17 7 0 10 -262144 -1
-1;
#X text 193 41 reset:;
#X obj 304 18 loadbang;
#X obj 347 100 f \$1;
#X msg 347 122 \; steps-\$1 const 0;
#N canvas 0 22 450 278 (subpatch) 0;
#X array steps-\$1 8 float 3;
#A 0 0 0 0 0 0 0 0 0;
#X coords 0 1 8 -1 200 140 1;
#X restore 344 204 graph;
#X msg 24 196 \$1 0;
#X msg 64 196 \$1 1;
#X msg 104 196 \$1 2;
#X msg 145 196 \$1 3;
#X msg 184 196 \$1 4;
#X msg 224 196 \$1 5;
#X msg 264 196 \$1 6;
#X msg 304 196 \$1 7;
#X obj 149 255 unpack;
#X floatatom 149 277 5 0 0 0 - - -, f 5;
#X obj 149 295 tabwrite steps-\$1;
#X connect 0 0 1 0;
#X connect 0 0 2 0;
#X connect 0 0 3 0;
#X connect 0 0 4 0;
#X connect 0 0 5 0;
#X connect 0 0 6 0;
#X connect 0 0 7 0;
#X connect 0 0 8 0;
#X connect 1 0 15 0;
#X connect 2 0 16 0;
#X connect 3 0 17 0;
#X connect 4 0 18 0;
#X connect 5 0 19 0;
#X connect 6 0 20 0;
#X connect 7 0 21 0;
#X connect 8 0 22 0;
#X connect 9 0 12 0;
#X connect 9 0 0 0;
#X connect 11 0 9 0;
#X connect 12 0 13 0;
#X connect 15 0 23 0;
#X connect 16 0 23 0;
#X connect 17 0 23 0;
#X connect 18 0 23 0;
#X connect 19 0 23 0;
#X connect 20 0 23 0;
#X connect 21 0 23 0;
#X connect 22 0 23 0;
#X connect 23 0 24 0;
#X connect 23 1 25 1;
#X connect 24 0 25 0;
#X coords 0 -1 1 1 180 50 1 80 35;
