#N canvas 631 97 566 379 10;
#N canvas 0 22 450 278 (subpatch) 0;
#X array s\$2 24747 float 2;
#X coords 0 1 24747 -1 200 140 1 0 0;
#X restore 304 189 graph;
#X obj 24 164 soundfiler;
#X floatatom 24 186 10 0 0 0 - - -, f 10;
#X floatatom 51 251 10 0 0 0 - - -, f 10;
#X obj 27 14 loadbang;
#X obj 27 53 t b b, f 13;
#X obj 27 75 symbol \$1;
#X symbolatom 28 99 10 0 0 0 - - -, f 10;
#X obj 98 15 bng 15 250 50 0 empty empty empty 17 7 0 10 -262144 -1
-1;
#X obj 101 75 float \$2;
#X floatatom 101 97 5 0 0 0 - - -, f 5;
#X obj 25 118 pack s f;
#X obj 25 205 t f b;
#X obj 51 229 float \$2;
#X obj 25 301 tabwrite durations;
#X msg 24 142 read -resize Samples/\$1.wav s\$2;
#X connect 1 0 2 0;
#X connect 2 0 12 0;
#X connect 3 0 14 1;
#X connect 4 0 5 0;
#X connect 5 0 6 0;
#X connect 5 1 9 0;
#X connect 6 0 7 0;
#X connect 7 0 11 0;
#X connect 8 0 5 0;
#X connect 9 0 10 0;
#X connect 10 0 11 1;
#X connect 11 0 15 0;
#X connect 12 0 14 0;
#X connect 12 1 13 0;
#X connect 13 0 3 0;
#X connect 15 0 1 0;
