#N canvas 59 184 508 562 10;
#X obj 12 18 samples;
#N canvas 180 340 450 300 voice-management 0;
#X obj 30 48 r voice-allocate;
#X obj 30 85 t b a, f 12;
#X obj 30 117 f;
#X obj 61 117 + 1;
#X obj 30 139 mod 16;
#X obj 30 161 list append;
#X msg 30 183 \; voice-data-\$1 \$2 \$3 \$4;
#X msg 138 49 1 127 1;
#X obj 30 16 clone voice 16;
#X connect 0 0 1 0;
#X connect 1 0 2 0;
#X connect 1 1 5 1;
#X connect 2 0 3 0;
#X connect 2 0 4 0;
#X connect 3 0 2 1;
#X connect 4 0 5 0;
#X connect 5 0 6 0;
#X connect 7 0 1 0;
#X restore 13 42 pd voice-management;
#X obj 13 70 control 1;
#X obj 13 134 control 2;
#X obj 14 198 control 3;
#X obj 18 275 tgl 15 0 empty empty empty 17 7 0 10 -262144 -1 -1 0
1;
#X obj 18 295 metro 600;
#X floatatom 70 272 5 0 0 0 - - -, f 5;
#X obj 18 317 f;
#X obj 47 316 + 1;
#X obj 18 339 mod 8;
#X obj 155 356 tabread steps-3;
#X floatatom 155 378 5 0 0 0 - - -, f 5;
#X obj 155 397 pack f 127 3;
#X obj 155 419 s voice-allocate;
#X obj 55 376 tabread steps-2;
#X floatatom 55 398 5 0 0 0 - - -, f 5;
#X obj 55 417 pack f 127 2;
#X obj 55 439 s voice-allocate;
#X obj 19 470 tabread steps-1;
#X floatatom 19 492 5 0 0 0 - - -, f 5;
#X obj 19 511 pack f 127 1;
#X obj 19 533 s voice-allocate;
#X obj 172 471 catch~ soundout;
#X obj 172 493 dac~;
#X connect 5 0 6 0;
#X connect 6 0 8 0;
#X connect 7 0 6 1;
#X connect 8 0 9 0;
#X connect 8 0 10 0;
#X connect 9 0 8 1;
#X connect 10 0 11 0;
#X connect 10 0 15 0;
#X connect 10 0 19 0;
#X connect 11 0 12 0;
#X connect 12 0 13 0;
#X connect 13 0 14 0;
#X connect 15 0 16 0;
#X connect 16 0 17 0;
#X connect 17 0 18 0;
#X connect 19 0 20 0;
#X connect 20 0 21 0;
#X connect 21 0 22 0;
#X connect 23 0 24 0;
#X connect 23 0 24 1;
