#N canvas 19 23 480 481 10;
#X obj 12 10 r voice-data-\$1;
#X obj 12 38 unpack f f f;
#X msg 115 10 2 127 1;
#X floatatom 12 63 5 0 0 0 - - -, f 5;
#X floatatom 48 63 5 0 0 0 - - -, f 5;
#X floatatom 84 63 5 0 0 0 - - -, f 5;
#X obj 10 182 t b b b f, f 14;
#X floatatom 91 263 5 0 0 0 - - -, f 5;
#X msg 64 210 0;
#X obj 37 265 f;
#X obj 37 287 * 1;
#X msg 10 208 1;
#X obj 10 314 pack;
#X obj 10 336 line~;
#X obj 10 358 *~;
#X obj 10 380 +~ 1;
#X obj 10 402 tabread4~ s1;
#X obj 166 419 *~;
#X obj 166 441 throw~ soundout;
#X obj 229 315 sel 0;
#X floatatom 256 339 5 0 0 0 - - -, f 5;
#X obj 256 358 / 127;
#X obj 256 380 pack f 30;
#X obj 256 402 line~;
#X obj 205 101 t f f, f 22;
#X obj 205 123 tabread durations;
#X floatatom 205 145 5 0 0 0 - - -, f 5;
#X obj 205 164 t f f, f 10;
#X obj 205 186 / 44.1;
#X floatatom 205 208 5 0 0 0 - - -, f 5;
#X floatatom 262 207 5 0 0 0 - - -, f 5;
#X obj 58 334 - 3;
#X msg 332 206 set s\$1;
#X connect 0 0 1 0;
#X connect 1 0 3 0;
#X connect 1 1 4 0;
#X connect 1 2 5 0;
#X connect 2 0 1 0;
#X connect 3 0 6 0;
#X connect 4 0 19 0;
#X connect 5 0 24 0;
#X connect 6 0 11 0;
#X connect 6 1 9 0;
#X connect 6 2 8 0;
#X connect 6 3 7 0;
#X connect 7 0 10 1;
#X connect 8 0 13 0;
#X connect 9 0 10 0;
#X connect 10 0 12 1;
#X connect 11 0 12 0;
#X connect 12 0 13 0;
#X connect 13 0 14 0;
#X connect 14 0 15 0;
#X connect 15 0 16 0;
#X connect 16 0 17 0;
#X connect 17 0 18 0;
#X connect 19 1 20 0;
#X connect 20 0 21 0;
#X connect 21 0 22 0;
#X connect 22 0 23 0;
#X connect 23 0 17 1;
#X connect 24 0 25 0;
#X connect 24 1 32 0;
#X connect 25 0 26 0;
#X connect 26 0 27 0;
#X connect 27 0 28 0;
#X connect 27 1 30 0;
#X connect 28 0 29 0;
#X connect 29 0 9 1;
#X connect 30 0 31 0;
#X connect 31 0 14 1;
#X connect 32 0 16 0;
